<mxfile host="Electron" modified="2024-04-04T14:57:12.913Z" agent="Mozilla/5.0 (Windows NT 10.0; Win64; x64) AppleWebKit/537.36 (KHTML, like Gecko) draw.io/22.1.16 Chrome/120.0.6099.109 Electron/28.1.0 Safari/537.36" etag="evea5oFi3Iu2oCFHuD2f" version="22.1.16" type="device">
  <diagram name="Page-1" id="13e1069c-82ec-6db2-03f1-153e76fe0fe0">
    <mxGraphModel dx="1050" dy="621" grid="1" gridSize="10" guides="1" tooltips="1" connect="1" arrows="1" fold="1" page="1" pageScale="1" pageWidth="1100" pageHeight="850" background="none" math="0" shadow="0">
      <root>
        <mxCell id="0" />
        <mxCell id="1" parent="0" />
        <mxCell id="7baba1c4bc27f4b0-2" value="AdminView" style="shape=umlLifeline;perimeter=lifelinePerimeter;whiteSpace=wrap;html=1;container=1;collapsible=0;recursiveResize=0;outlineConnect=0;rounded=0;shadow=0;comic=0;labelBackgroundColor=none;strokeWidth=1;fontFamily=Verdana;fontSize=12;align=center;fillColor=#dae8fc;strokeColor=#6c8ebf;" parent="1" vertex="1">
          <mxGeometry x="220" y="120" width="135" height="480" as="geometry" />
        </mxCell>
        <mxCell id="7baba1c4bc27f4b0-10" value="" style="html=1;points=[];perimeter=orthogonalPerimeter;rounded=0;shadow=0;comic=0;labelBackgroundColor=none;strokeWidth=1;fontFamily=Verdana;fontSize=12;align=center;" parent="7baba1c4bc27f4b0-2" vertex="1">
          <mxGeometry x="62.5" y="96" width="10" height="110" as="geometry" />
        </mxCell>
        <mxCell id="BazkxacqFKndKwqCTscp-36" value="" style="endArrow=open;dashed=1;html=1;dashPattern=1 3;strokeWidth=2;rounded=0;endFill=0;" parent="7baba1c4bc27f4b0-2" source="Tgv9cBTI27cX0pnWbjZV-3" edge="1">
          <mxGeometry width="50" height="50" relative="1" as="geometry">
            <mxPoint x="222.20000000000005" y="298.8845" as="sourcePoint" />
            <mxPoint x="-84" y="301" as="targetPoint" />
          </mxGeometry>
        </mxCell>
        <mxCell id="BazkxacqFKndKwqCTscp-41" value="return" style="text;html=1;strokeColor=none;fillColor=none;align=center;verticalAlign=middle;whiteSpace=wrap;rounded=0;" parent="7baba1c4bc27f4b0-2" vertex="1">
          <mxGeometry x="72.5" y="276" width="60" height="30" as="geometry" />
        </mxCell>
        <mxCell id="7baba1c4bc27f4b0-8" value="Admin" style="shape=umlLifeline;perimeter=lifelinePerimeter;whiteSpace=wrap;html=1;container=1;collapsible=0;recursiveResize=0;outlineConnect=0;rounded=0;shadow=0;comic=0;labelBackgroundColor=none;strokeWidth=1;fontFamily=Verdana;fontSize=12;align=center;glass=0;fillColor=#dae8fc;strokeColor=#6c8ebf;" parent="1" vertex="1">
          <mxGeometry x="80" y="120" width="100" height="480" as="geometry" />
        </mxCell>
        <mxCell id="7baba1c4bc27f4b0-9" value="" style="html=1;points=[];perimeter=orthogonalPerimeter;rounded=0;shadow=0;comic=0;labelBackgroundColor=none;strokeWidth=1;fontFamily=Verdana;fontSize=12;align=center;" parent="7baba1c4bc27f4b0-8" vertex="1">
          <mxGeometry x="45" y="96" width="10" height="384" as="geometry" />
        </mxCell>
        <mxCell id="7baba1c4bc27f4b0-11" value="insertFilm()" style="html=1;verticalAlign=bottom;endArrow=block;entryX=0;entryY=0;labelBackgroundColor=none;fontFamily=Verdana;fontSize=12;edgeStyle=elbowEdgeStyle;elbow=vertical;" parent="1" edge="1">
          <mxGeometry relative="1" as="geometry">
            <mxPoint x="135" y="228" as="sourcePoint" />
            <mxPoint x="275" y="228" as="targetPoint" />
          </mxGeometry>
        </mxCell>
        <mxCell id="7baba1c4bc27f4b0-40" value="UC6: Gestione del catalogo" style="shape=note;whiteSpace=wrap;html=1;size=7;verticalAlign=top;align=left;spacingTop=-6;rounded=0;shadow=0;comic=0;labelBackgroundColor=none;strokeWidth=1;fontFamily=Verdana;fontSize=12;fillColor=#fff2cc;strokeColor=#d6b656;" parent="1" vertex="1">
          <mxGeometry width="130" height="35" as="geometry" />
        </mxCell>
        <mxCell id="BazkxacqFKndKwqCTscp-3" value="FilmDAO" style="shape=umlLifeline;perimeter=lifelinePerimeter;whiteSpace=wrap;html=1;container=1;collapsible=0;recursiveResize=0;outlineConnect=0;rounded=0;shadow=0;comic=0;labelBackgroundColor=none;strokeWidth=1;fontFamily=Verdana;fontSize=12;align=center;fillColor=#dae8fc;strokeColor=#6c8ebf;" parent="1" vertex="1">
          <mxGeometry x="705" y="120" width="100" height="480" as="geometry" />
        </mxCell>
        <mxCell id="BazkxacqFKndKwqCTscp-4" value="" style="html=1;points=[];perimeter=orthogonalPerimeter;rounded=0;shadow=0;comic=0;labelBackgroundColor=none;strokeWidth=1;fontFamily=Verdana;fontSize=12;align=center;" parent="BazkxacqFKndKwqCTscp-3" vertex="1">
          <mxGeometry x="45" y="250" width="10" height="160" as="geometry" />
        </mxCell>
        <mxCell id="BazkxacqFKndKwqCTscp-6" value="CinemaDB" style="shape=umlLifeline;perimeter=lifelinePerimeter;whiteSpace=wrap;html=1;container=1;collapsible=0;recursiveResize=0;outlineConnect=0;rounded=0;shadow=0;comic=0;labelBackgroundColor=none;strokeWidth=1;fontFamily=Verdana;fontSize=12;align=center;fillColor=#dae8fc;strokeColor=#6c8ebf;" parent="1" vertex="1">
          <mxGeometry x="855" y="120" width="100" height="480" as="geometry" />
        </mxCell>
        <mxCell id="BazkxacqFKndKwqCTscp-7" value="" style="html=1;points=[];perimeter=orthogonalPerimeter;rounded=0;shadow=0;comic=0;labelBackgroundColor=none;strokeWidth=1;fontFamily=Verdana;fontSize=12;align=center;" parent="BazkxacqFKndKwqCTscp-6" vertex="1">
          <mxGeometry x="45" y="360" width="10" height="120" as="geometry" />
        </mxCell>
        <mxCell id="Tgv9cBTI27cX0pnWbjZV-9" value="insertFilm(Film)" style="html=1;verticalAlign=bottom;endArrow=block;entryX=0;entryY=0;labelBackgroundColor=none;fontFamily=Verdana;fontSize=12;edgeStyle=elbowEdgeStyle;elbow=horizontal;" parent="BazkxacqFKndKwqCTscp-6" edge="1">
          <mxGeometry relative="1" as="geometry">
            <mxPoint x="-95" y="390" as="sourcePoint" />
            <mxPoint x="45" y="390" as="targetPoint" />
          </mxGeometry>
        </mxCell>
        <mxCell id="BazkxacqFKndKwqCTscp-32" value="AdminView&lt;br&gt;Controller" style="shape=umlLifeline;perimeter=lifelinePerimeter;whiteSpace=wrap;html=1;container=1;collapsible=0;recursiveResize=0;outlineConnect=0;rounded=0;shadow=0;comic=0;labelBackgroundColor=none;strokeWidth=1;fontFamily=Verdana;fontSize=12;align=center;fillColor=#dae8fc;strokeColor=#6c8ebf;" parent="1" vertex="1">
          <mxGeometry x="390" y="120" width="120" height="480" as="geometry" />
        </mxCell>
        <mxCell id="BazkxacqFKndKwqCTscp-33" value="" style="html=1;points=[];perimeter=orthogonalPerimeter;rounded=0;shadow=0;comic=0;labelBackgroundColor=none;strokeWidth=1;fontFamily=Verdana;fontSize=12;align=center;" parent="BazkxacqFKndKwqCTscp-32" vertex="1">
          <mxGeometry x="55" y="110" width="10" height="156.5" as="geometry" />
        </mxCell>
        <mxCell id="7baba1c4bc27f4b0-14" value="switchPage()" style="html=1;verticalAlign=bottom;endArrow=block;labelBackgroundColor=none;fontFamily=Verdana;fontSize=12;edgeStyle=elbowEdgeStyle;elbow=horizontal;" parent="1" edge="1">
          <mxGeometry relative="1" as="geometry">
            <mxPoint x="294" y="260" as="sourcePoint" />
            <mxPoint x="444" y="260" as="targetPoint" />
          </mxGeometry>
        </mxCell>
        <mxCell id="Tgv9cBTI27cX0pnWbjZV-3" value="Film" style="shape=umlLifeline;perimeter=lifelinePerimeter;whiteSpace=wrap;html=1;container=1;collapsible=0;recursiveResize=0;outlineConnect=0;rounded=0;shadow=0;comic=0;labelBackgroundColor=none;strokeWidth=1;fontFamily=Verdana;fontSize=12;align=center;fillColor=#dae8fc;strokeColor=#6c8ebf;" parent="1" vertex="1">
          <mxGeometry x="550" y="120" width="100" height="480" as="geometry" />
        </mxCell>
        <mxCell id="Tgv9cBTI27cX0pnWbjZV-4" value="" style="html=1;points=[];perimeter=orthogonalPerimeter;rounded=0;shadow=0;comic=0;labelBackgroundColor=none;strokeWidth=1;fontFamily=Verdana;fontSize=12;align=center;" parent="Tgv9cBTI27cX0pnWbjZV-3" vertex="1">
          <mxGeometry x="45" y="150" width="10" height="170" as="geometry" />
        </mxCell>
        <mxCell id="Tgv9cBTI27cX0pnWbjZV-5" value="setParameter(title,&lt;br&gt;rating,duration,price)" style="html=1;verticalAlign=bottom;endArrow=block;entryX=0;entryY=0;labelBackgroundColor=none;fontFamily=Verdana;fontSize=12;edgeStyle=elbowEdgeStyle;elbow=vertical;" parent="1" edge="1">
          <mxGeometry y="5" relative="1" as="geometry">
            <mxPoint x="454" y="295" as="sourcePoint" />
            <mxPoint x="594" y="295" as="targetPoint" />
            <mxPoint as="offset" />
          </mxGeometry>
        </mxCell>
        <mxCell id="Tgv9cBTI27cX0pnWbjZV-7" value="" style="endArrow=open;dashed=1;html=1;dashPattern=1 3;strokeWidth=2;rounded=0;endFill=0;" parent="1" edge="1">
          <mxGeometry width="50" height="50" relative="1" as="geometry">
            <mxPoint x="900" y="580" as="sourcePoint" />
            <mxPoint x="136" y="582" as="targetPoint" />
          </mxGeometry>
        </mxCell>
        <mxCell id="Tgv9cBTI27cX0pnWbjZV-8" value="return" style="text;html=1;strokeColor=none;fillColor=none;align=center;verticalAlign=middle;whiteSpace=wrap;rounded=0;" parent="1" vertex="1">
          <mxGeometry x="292.5" y="557" width="60" height="30" as="geometry" />
        </mxCell>
        <mxCell id="wKtZGAlD6Ijr--a_wXPx-5" value="" style="endArrow=classic;html=1;rounded=0;entryX=0.16;entryY=0.815;entryDx=0;entryDy=0;entryPerimeter=0;" parent="1" source="7baba1c4bc27f4b0-8" target="BazkxacqFKndKwqCTscp-4" edge="1">
          <mxGeometry width="50" height="50" relative="1" as="geometry">
            <mxPoint x="282.5" y="480" as="sourcePoint" />
            <mxPoint x="415.5" y="480" as="targetPoint" />
          </mxGeometry>
        </mxCell>
        <mxCell id="wKtZGAlD6Ijr--a_wXPx-4" value="&lt;span style=&quot;color: rgb(0, 0, 0); font-family: Verdana; font-size: 12px; font-style: normal; font-variant-ligatures: normal; font-variant-caps: normal; font-weight: 400; letter-spacing: normal; orphans: 2; text-align: center; text-indent: 0px; text-transform: none; widows: 2; word-spacing: 0px; -webkit-text-stroke-width: 0px; background-color: rgb(251, 251, 251); text-decoration-thickness: initial; text-decoration-style: initial; text-decoration-color: initial; float: none; display: inline !important;&quot;&gt;addFilm(Film)&lt;/span&gt;" style="text;whiteSpace=wrap;html=1;" parent="1" vertex="1">
          <mxGeometry x="625" y="474" width="130" height="40" as="geometry" />
        </mxCell>
        <mxCell id="fV7H00QE5CcMfUGclYMK-1" value="Aggiungere remove film" style="text;html=1;align=center;verticalAlign=middle;resizable=0;points=[];autosize=1;strokeColor=none;fillColor=none;" vertex="1" parent="1">
          <mxGeometry x="120" y="640" width="150" height="30" as="geometry" />
        </mxCell>
      </root>
    </mxGraphModel>
  </diagram>
</mxfile>
